<svg width="688" height="688" viewBox="0 0 688 688" fill="none" xmlns="http://www.w3.org/2000/svg">
<path d="M351.898 0.0927734C353.233 0.123322 354.565 0.162301 355.896 0.208008C355.855 1.30836 356.712 2.23513 357.813 2.2793C361.805 2.43936 365.78 2.66709 369.735 2.96289C370.834 3.04501 371.792 2.22295 371.878 1.125C373.204 1.23189 374.529 1.34587 375.851 1.46777C375.747 2.5644 376.549 3.53891 377.646 3.64648C381.623 4.03638 385.579 4.49458 389.515 5.01953C390.607 5.16532 391.611 4.39927 391.76 3.30762C393.079 3.4914 394.396 3.68313 395.71 3.88184C395.542 4.97046 396.287 5.98983 397.376 6.16113C401.319 6.78084 405.24 7.46839 409.138 8.22168C410.22 8.43091 411.267 7.72466 411.479 6.64355C412.789 6.9047 414.097 7.17226 415.401 7.44824C415.17 8.52583 415.854 9.58866 416.932 9.82324C420.826 10.6709 424.695 11.5844 428.538 12.5635C429.606 12.8355 430.691 12.1922 430.967 11.126C432.262 11.4641 433.555 11.8093 434.845 12.1621C434.551 13.2238 435.173 14.3239 436.234 14.6211C440.071 15.695 443.88 16.8339 447.661 18.0371C448.712 18.3714 449.833 17.7922 450.17 16.7432C451.442 17.1562 452.711 17.5765 453.977 18.0039C453.621 19.0468 454.176 20.1821 455.219 20.541C458.986 21.8381 462.724 23.1992 466.431 24.623C467.459 25.0182 468.612 24.5058 469.011 23.4795C470.254 23.9655 471.494 24.458 472.73 24.958C472.315 25.978 472.803 27.1423 473.822 27.5615C477.508 29.0771 481.161 30.6555 484.78 32.2949C485.784 32.7495 486.965 32.3055 487.423 31.3037C488.634 31.8606 489.841 32.4236 491.044 32.9941C490.569 33.9883 490.988 35.1808 491.981 35.6592C495.572 37.3876 499.128 39.1765 502.647 41.0254C503.623 41.5379 504.828 41.1644 505.344 40.1914C506.521 40.8189 507.695 41.4531 508.864 42.0938C508.333 43.0583 508.682 44.2724 509.646 44.8076C513.126 46.741 516.57 48.7331 519.975 50.7832C520.919 51.3514 522.143 51.0486 522.715 50.1074C523.855 50.8032 524.991 51.5053 526.123 52.2139C525.537 53.1458 525.814 54.3774 526.744 54.9678C530.105 57.0998 533.428 59.2894 536.708 61.5342C537.618 62.1566 538.859 61.9242 539.483 61.0166C540.581 61.7772 541.674 62.5444 542.763 63.3174C542.122 64.2139 542.327 65.4609 543.223 66.1045C546.454 68.4279 549.644 70.8062 552.79 73.2383C553.662 73.9122 554.913 73.7525 555.59 72.8838C556.641 73.7062 557.687 74.5348 558.729 75.3691C558.038 76.2269 558.171 77.4827 559.027 78.1768C562.119 80.6831 565.166 83.2428 568.167 85.8535C568.999 86.5766 570.258 86.4903 570.983 85.6621C571.985 86.5436 572.982 87.4303 573.973 88.3232C573.233 89.1397 573.293 90.4019 574.107 91.1445C577.048 93.825 579.943 96.5555 582.788 99.3359C583.577 100.106 584.839 100.093 585.611 99.3076C586.56 100.246 587.504 101.189 588.441 102.138C587.656 102.91 587.644 104.173 588.414 104.962C591.194 107.807 593.926 110.702 596.606 113.643C597.349 114.457 598.609 114.516 599.426 113.777C600.319 114.768 601.206 115.764 602.087 116.766C601.259 117.491 601.174 118.751 601.897 119.583C604.508 122.584 607.067 125.631 609.573 128.723C610.267 129.579 611.522 129.711 612.38 129.021C613.214 130.062 614.043 131.108 614.865 132.159C613.997 132.836 613.838 134.088 614.512 134.96C616.944 138.106 619.322 141.296 621.646 144.527C622.289 145.423 623.535 145.627 624.432 144.986C625.205 146.075 625.972 147.168 626.732 148.266C625.825 148.89 625.594 150.132 626.216 151.042C628.461 154.322 630.65 157.645 632.782 161.006C633.373 161.936 634.603 162.212 635.535 161.626C636.244 162.758 636.946 163.894 637.642 165.034C636.701 165.606 636.399 166.831 636.967 167.775C639.017 171.18 641.009 174.624 642.942 178.104C643.477 179.068 644.691 179.416 645.655 178.885C646.296 180.054 646.93 181.228 647.558 182.405C646.585 182.921 646.212 184.127 646.725 185.103C648.574 188.622 650.362 192.178 652.091 195.769C652.569 196.762 653.761 197.18 654.755 196.705C655.325 197.908 655.888 199.115 656.445 200.326C655.444 200.784 655.001 201.966 655.455 202.97C657.094 206.589 658.673 210.242 660.188 213.928C660.608 214.947 661.771 215.434 662.791 215.019C663.291 216.255 663.784 217.495 664.27 218.738C663.244 219.137 662.732 220.291 663.127 221.319C664.551 225.026 665.912 228.764 667.209 232.531C667.568 233.574 668.702 234.128 669.745 233.772C670.173 235.038 670.593 236.307 671.006 237.579C669.957 237.917 669.379 239.038 669.713 240.089C670.916 243.87 672.055 247.679 673.129 251.516C673.426 252.577 674.525 253.197 675.587 252.904C675.94 254.194 676.285 255.487 676.623 256.782C675.557 257.058 674.915 258.144 675.187 259.212C676.166 263.055 677.079 266.924 677.927 270.818C678.161 271.896 679.223 272.579 680.301 272.348C680.577 273.652 680.844 274.96 681.105 276.27C680.025 276.482 679.319 277.53 679.528 278.612C680.282 282.51 680.969 286.431 681.589 290.374C681.76 291.463 682.779 292.206 683.867 292.039C684.066 293.353 684.258 294.67 684.441 295.989C683.35 296.139 682.585 297.143 682.73 298.235C683.255 302.171 683.714 306.127 684.104 310.104C684.211 311.2 685.185 312.002 686.281 311.898C686.403 313.22 686.517 314.545 686.624 315.871C685.526 315.957 684.705 316.916 684.787 318.015C685.083 321.97 685.311 325.945 685.471 329.937C685.515 331.037 686.441 331.893 687.541 331.854C687.587 333.184 687.626 334.516 687.656 335.851C686.555 335.874 685.679 336.783 685.698 337.885C685.732 339.877 685.75 341.874 685.75 343.875C685.75 345.876 685.732 347.873 685.698 349.865C685.679 350.967 686.555 351.875 687.656 351.898C687.626 353.233 687.587 354.565 687.541 355.896C686.441 355.856 685.515 356.713 685.471 357.813C685.311 361.805 685.083 365.78 684.787 369.735C684.705 370.834 685.527 371.792 686.624 371.878C686.517 373.204 686.403 374.529 686.281 375.851C685.185 375.747 684.211 376.55 684.104 377.646C683.714 381.623 683.255 385.579 682.73 389.515C682.585 390.607 683.35 391.61 684.441 391.76C684.258 393.079 684.066 394.396 683.867 395.71C682.779 395.543 681.76 396.287 681.589 397.376C680.969 401.319 680.282 405.24 679.528 409.138C679.319 410.22 680.025 411.267 681.105 411.479C680.844 412.789 680.577 414.097 680.301 415.401C679.291 415.185 678.295 415.772 677.98 416.733L677.927 416.932C677.291 419.852 676.618 422.758 675.908 425.65L675.187 428.538C674.915 429.606 675.557 430.691 676.623 430.967C676.285 432.262 675.94 433.555 675.587 434.845C674.592 434.57 673.564 435.099 673.194 436.04L673.129 436.234C672.323 439.112 671.482 441.974 670.604 444.82L669.713 447.661C669.379 448.712 669.957 449.832 671.006 450.17C670.593 451.442 670.173 452.711 669.745 453.977C668.702 453.621 667.568 454.176 667.209 455.219C665.912 458.986 664.551 462.724 663.127 466.431C662.732 467.459 663.244 468.612 664.27 469.011C663.784 470.254 663.291 471.494 662.791 472.73C661.835 472.342 660.752 472.745 660.275 473.637L660.188 473.822C659.052 476.586 657.879 479.332 656.673 482.059L655.455 484.78C655.001 485.784 655.444 486.965 656.445 487.423C655.888 488.634 655.325 489.841 654.755 491.044C653.761 490.569 652.569 490.988 652.091 491.981C650.794 494.674 649.464 497.348 648.1 500.001L646.725 502.647C646.212 503.623 646.585 504.828 647.558 505.344C646.93 506.521 646.296 507.695 645.655 508.864C644.691 508.334 643.477 508.682 642.942 509.646C641.492 512.256 640.01 514.845 638.494 517.413L636.967 519.975C636.399 520.918 636.701 522.143 637.642 522.715C636.946 523.855 636.244 524.991 635.535 526.123C634.662 525.574 633.525 525.783 632.9 526.577L632.782 526.744C631.183 529.265 629.552 531.764 627.89 534.239L626.216 536.708C625.594 537.618 625.825 538.859 626.732 539.483C625.972 540.581 625.205 541.674 624.432 542.763C623.535 542.123 622.289 542.328 621.646 543.223C619.903 545.646 618.13 548.047 616.326 550.423L614.512 552.79C613.838 553.662 613.997 554.913 614.865 555.59C614.043 556.641 613.214 557.687 612.38 558.729C611.522 558.039 610.267 558.172 609.573 559.027C607.694 561.346 605.784 563.64 603.846 565.907L601.896 568.167C601.174 568.998 601.259 570.258 602.087 570.983C601.205 571.985 600.319 572.982 599.426 573.973C598.609 573.234 597.348 573.293 596.605 574.107C594.595 576.313 592.557 578.492 590.49 580.645L588.414 582.788C587.644 583.576 587.656 584.839 588.441 585.611C587.504 586.56 586.56 587.504 585.611 588.441C584.887 587.706 583.733 587.648 582.941 588.278L582.788 588.414C580.654 590.499 578.493 592.557 576.305 594.586L574.107 596.606C573.293 597.349 573.233 598.609 573.972 599.426C572.981 600.319 571.985 601.206 570.983 602.087C570.303 601.311 569.153 601.187 568.327 601.771L568.167 601.897C565.166 604.508 562.119 607.067 559.027 609.573C558.172 610.267 558.039 611.522 558.729 612.38C557.687 613.214 556.641 614.043 555.59 614.865C554.955 614.051 553.816 613.861 552.958 614.396L552.79 614.512C549.644 616.944 546.454 619.322 543.223 621.646C542.328 622.289 542.123 623.535 542.763 624.432C541.674 625.205 540.581 625.972 539.483 626.732C538.897 625.882 537.77 625.625 536.882 626.109L536.708 626.216C534.248 627.899 531.764 629.552 529.258 631.173L526.744 632.782C525.814 633.372 525.537 634.603 526.123 635.535C524.991 636.244 523.855 636.946 522.715 637.642C522.179 636.76 521.069 636.439 520.154 636.87L519.975 636.967C516.57 639.017 513.126 641.009 509.646 642.942C508.682 643.477 508.334 644.691 508.864 645.655C507.695 646.296 506.521 646.93 505.344 647.558C504.86 646.646 503.771 646.261 502.833 646.639L502.647 646.725C499.128 648.574 495.572 650.362 491.981 652.091C490.988 652.569 490.569 653.761 491.044 654.755C489.841 655.325 488.634 655.888 487.423 656.445C486.994 655.507 485.929 655.058 484.971 655.38L484.78 655.455C482.066 656.685 479.332 657.88 476.58 659.04L473.822 660.188C472.803 660.608 472.316 661.771 472.73 662.791C471.494 663.291 470.254 663.784 469.011 664.27C468.612 663.244 467.459 662.732 466.431 663.127C462.724 664.551 458.986 665.912 455.219 667.209C454.176 667.568 453.621 668.702 453.977 669.745C452.711 670.173 451.442 670.593 450.17 671.006C449.854 670.023 448.849 669.453 447.859 669.66L447.661 669.713C444.825 670.615 441.974 671.482 439.106 672.312L436.234 673.129C435.173 673.426 434.552 674.526 434.845 675.587C433.555 675.94 432.262 676.285 430.967 676.623C430.708 675.624 429.738 674.996 428.738 675.146L428.538 675.187C425.656 675.921 422.759 676.619 419.848 677.279L416.932 677.927C415.854 678.161 415.17 679.224 415.401 680.301C414.097 680.577 412.789 680.844 411.479 681.105C411.267 680.025 410.22 679.319 409.138 679.528C405.24 680.282 401.319 680.969 397.376 681.589C396.288 681.76 395.543 682.779 395.71 683.867C394.396 684.066 393.079 684.258 391.76 684.441C391.61 683.35 390.607 682.585 389.515 682.73C385.579 683.255 381.623 683.714 377.646 684.104C376.55 684.211 375.747 685.185 375.851 686.281C374.529 686.403 373.204 686.517 371.878 686.624C371.792 685.527 370.834 684.705 369.735 684.787C365.78 685.083 361.805 685.311 357.813 685.471C356.713 685.515 355.856 686.441 355.896 687.541C354.565 687.587 353.233 687.626 351.898 687.656C351.875 686.555 350.967 685.679 349.865 685.698C347.873 685.732 345.876 685.75 343.875 685.75C341.874 685.75 339.877 685.732 337.885 685.698C336.783 685.679 335.874 686.555 335.851 687.656C334.516 687.626 333.184 687.587 331.854 687.541C331.893 686.441 331.037 685.515 329.937 685.471L326.946 685.338C323.959 685.192 320.981 685.009 318.015 684.787L317.811 684.782C316.8 684.809 315.952 685.595 315.871 686.624C314.545 686.517 313.22 686.403 311.898 686.281C312.002 685.185 311.2 684.211 310.104 684.104L307.125 683.798C304.15 683.48 301.187 683.124 298.235 682.73L298.031 682.714C297.02 682.682 296.129 683.419 295.989 684.441C294.67 684.258 293.353 684.066 292.039 683.867C292.206 682.779 291.463 681.76 290.374 681.589L287.421 681.111C284.472 680.621 281.535 680.093 278.612 679.528L278.409 679.5C277.402 679.409 276.469 680.093 276.27 681.105C274.96 680.844 273.652 680.577 272.348 680.301C272.579 679.223 271.896 678.161 270.818 677.927C266.924 677.079 263.055 676.166 259.212 675.187L259.012 675.146C258.012 674.996 257.041 675.624 256.782 676.623C255.487 676.285 254.194 675.94 252.904 675.587C253.197 674.525 252.577 673.426 251.516 673.129C247.679 672.055 243.87 670.916 240.089 669.713L239.891 669.66C238.901 669.453 237.895 670.023 237.579 671.006C236.307 670.593 235.038 670.173 233.772 669.745C234.128 668.702 233.574 667.568 232.531 667.209L229.711 666.225C226.897 665.228 224.099 664.195 221.319 663.127L221.124 663.063C220.149 662.798 219.112 663.308 218.738 664.27C217.495 663.784 216.255 663.291 215.019 662.791C215.434 661.771 214.947 660.608 213.928 660.188L211.17 659.04C208.418 657.88 205.684 656.685 202.97 655.455L202.779 655.38C201.821 655.058 200.755 655.507 200.326 656.445C199.115 655.888 197.908 655.325 196.705 654.755C197.18 653.761 196.762 652.569 195.769 652.091L193.082 650.783C190.402 649.464 187.742 648.111 185.103 646.725L184.917 646.639C183.979 646.261 182.889 646.646 182.405 647.558C181.228 646.93 180.054 646.296 178.885 645.655C179.416 644.691 179.068 643.477 178.104 642.942L175.501 641.481C172.905 640.009 170.329 638.504 167.775 636.967C166.831 636.399 165.606 636.701 165.034 637.642C163.894 636.946 162.758 636.244 161.626 635.535C162.212 634.603 161.936 633.373 161.006 632.782L158.492 631.173C155.986 629.552 153.502 627.899 151.042 626.216C150.132 625.593 148.89 625.825 148.266 626.732C147.168 625.972 146.075 625.205 144.986 624.432C145.627 623.535 145.423 622.289 144.527 621.646L142.111 619.893C139.704 618.13 137.319 616.336 134.96 614.512C134.088 613.838 132.836 613.997 132.159 614.865C131.108 614.043 130.062 613.214 129.021 612.38C129.711 611.522 129.578 610.267 128.723 609.573L126.412 607.684C124.11 605.784 121.834 603.855 119.583 601.896C118.751 601.173 117.491 601.259 116.766 602.087C115.764 601.205 114.767 600.319 113.776 599.426C114.516 598.609 114.457 597.348 113.643 596.605L111.445 594.586C109.257 592.557 107.096 590.499 104.962 588.414L104.809 588.278C104.017 587.648 102.862 587.705 102.138 588.441C101.189 587.504 100.246 586.56 99.3076 585.611C100.093 584.839 100.106 583.577 99.3359 582.788L97.2598 580.645C95.1931 578.492 93.1539 576.313 91.1436 574.107C90.401 573.293 89.1396 573.233 88.3232 573.972C87.4305 572.981 86.5435 571.985 85.6621 570.983C86.4905 570.258 86.576 568.999 85.8525 568.167L83.9043 565.907C81.9657 563.64 80.0565 561.346 78.1768 559.027L78.04 558.875C77.3271 558.158 76.1732 558.082 75.3691 558.729C74.5348 557.687 73.7062 556.641 72.8838 555.59C73.7525 554.913 73.9121 553.662 73.2383 552.79L71.4238 550.422C69.6201 548.046 67.8469 545.646 66.1045 543.223L65.9766 543.062C65.306 542.305 64.1577 542.162 63.3174 542.763C62.5444 541.674 61.7772 540.581 61.0166 539.483C61.9242 538.859 62.1565 537.618 61.5342 536.708L59.8604 534.239C58.1978 531.764 56.5667 529.265 54.9678 526.744C54.3774 525.814 53.1458 525.537 52.2139 526.123C51.5052 524.991 50.8032 523.855 50.1074 522.715C51.0486 522.143 51.3514 520.919 50.7832 519.975L49.2559 517.413C47.7401 514.845 46.2576 512.256 44.8076 509.646L44.6992 509.472C44.1214 508.642 42.9979 508.366 42.0938 508.864C41.4531 507.695 40.8188 506.521 40.1914 505.344C41.1644 504.828 41.5379 503.623 41.0254 502.647L39.6504 500.001C38.2861 497.348 36.9556 494.674 35.6592 491.981L35.5605 491.802C35.0317 490.939 33.926 490.599 32.9941 491.044C32.4236 489.841 31.8606 488.634 31.3037 487.423C32.3056 486.965 32.7495 485.784 32.2949 484.78L31.0771 482.059C29.8707 479.332 28.6982 476.586 27.5615 473.822L27.4746 473.637C26.9974 472.745 25.9141 472.341 24.958 472.73C24.458 471.494 23.9655 470.254 23.4795 469.011C24.5058 468.612 25.0182 467.459 24.623 466.431L23.5664 463.646C22.5221 460.854 21.5139 458.045 20.541 455.219L20.4639 455.029C20.0396 454.111 18.9816 453.643 18.0039 453.977C17.5765 452.711 17.1562 451.442 16.7432 450.17C17.7922 449.833 18.3714 448.712 18.0371 447.661L17.1465 444.82C16.2681 441.974 15.4266 439.112 14.6211 436.234L14.5557 436.04C14.186 435.098 13.1573 434.57 12.1621 434.845C11.8093 433.555 11.4641 432.262 11.126 430.967C12.1922 430.691 12.8355 429.606 12.5635 428.538L11.8418 425.65C11.132 422.758 10.4589 419.852 9.82324 416.932L9.76953 416.733C9.45536 415.771 8.45828 415.184 7.44824 415.401C7.17226 414.097 6.9047 412.789 6.64355 411.479C7.72466 411.267 8.43091 410.22 8.22168 409.138C7.46839 405.24 6.78083 401.319 6.16113 397.376C5.9898 396.287 4.97044 395.542 3.88184 395.71C3.68313 394.396 3.4914 393.079 3.30762 391.76C4.39927 391.611 5.16532 390.607 5.01953 389.515C4.49458 385.579 4.03638 381.623 3.64648 377.646L3.61621 377.444C3.41642 376.453 2.49583 375.753 1.46777 375.851C1.34587 374.529 1.23189 373.204 1.125 371.878C2.22298 371.792 3.04507 370.834 2.96289 369.735L2.75391 366.766C2.55733 363.792 2.39935 360.808 2.2793 357.813L2.26074 357.609C2.11822 356.608 1.23934 355.858 0.208008 355.896C0.162301 354.565 0.123322 353.233 0.0927734 351.898C1.19403 351.876 2.07069 350.967 2.05176 349.865L2.0127 346.873C2.00412 345.875 2 344.875 2 343.875C2 342.875 2.00412 341.875 2.0127 340.877L2.05176 337.885C2.07069 336.783 1.19404 335.873 0.0927734 335.851C0.123326 334.516 0.162297 333.184 0.208008 331.854C1.2394 331.891 2.11827 331.142 2.26074 330.141L2.2793 329.937C2.43936 325.945 2.66709 321.97 2.96289 318.015C3.04501 316.916 2.22298 315.957 1.125 315.871C1.2319 314.545 1.34587 313.22 1.46777 311.898C2.56444 312.002 3.53891 311.201 3.64648 310.104C3.93891 307.121 4.2701 304.15 4.63867 301.19L5.01953 298.235C5.16532 297.142 4.39934 296.138 3.30762 295.989C3.49141 294.67 3.68312 293.353 3.88184 292.039C4.90246 292.196 5.86292 291.553 6.12012 290.574L6.16113 290.374C6.62589 287.417 7.12888 284.472 7.66895 281.54L8.22168 278.612C8.43092 277.53 7.72476 276.482 6.64355 276.27C6.9047 274.96 7.17226 273.652 7.44824 272.348C8.45837 272.565 9.45536 271.979 9.76953 271.017L9.82324 270.818C10.6709 266.924 11.5844 263.055 12.5635 259.212C12.8355 258.144 12.1923 257.058 11.126 256.782C11.4641 255.487 11.8093 254.194 12.1621 252.904C13.1574 253.18 14.186 252.652 14.5557 251.71L14.6211 251.516C15.695 247.679 16.8339 243.87 18.0371 240.089C18.3715 239.038 17.7923 237.916 16.7432 237.579C17.1562 236.307 17.5765 235.038 18.0039 233.772C18.9816 234.106 20.0395 233.639 20.4639 232.721L20.541 232.531C21.5139 229.705 22.5221 226.896 23.5664 224.104L24.623 221.319C25.0183 220.29 24.5061 219.137 23.4795 218.738C23.9655 217.495 24.458 216.255 24.958 215.019C25.9781 215.434 27.1423 214.947 27.5615 213.928C29.0771 210.242 30.6555 206.589 32.2949 202.97C32.7495 201.966 32.3058 200.784 31.3037 200.326C31.8606 199.115 32.4236 197.908 32.9941 196.705C33.9261 197.151 35.0316 196.811 35.5605 195.948L35.6592 195.769C37.3876 192.178 39.1765 188.622 41.0254 185.103C41.5379 184.127 41.1647 182.921 40.1914 182.405C40.8189 181.228 41.4531 180.054 42.0938 178.885C42.998 179.383 44.1213 179.108 44.6992 178.278L44.8076 178.104C46.2576 175.494 47.7401 172.905 49.2559 170.337L50.7832 167.775C51.3515 166.831 51.0489 165.605 50.1074 165.034C50.8032 163.894 51.5052 162.758 52.2139 161.626C53.0875 162.176 54.2243 161.968 54.8496 161.173L54.9678 161.006C56.5667 158.485 58.1978 155.986 59.8604 153.511L61.5342 151.042C62.1567 150.132 61.9246 148.89 61.0166 148.266C61.7772 147.168 62.5444 146.075 63.3174 144.986C64.1577 145.587 65.3058 145.445 65.9766 144.688L66.1045 144.527C67.8471 142.104 69.6199 139.703 71.4238 137.327L73.2383 134.96C73.9123 134.088 73.7529 132.836 72.8838 132.159C73.7062 131.108 74.5348 130.062 75.3691 129.021C76.1732 129.668 77.3269 129.592 78.04 128.875L78.1768 128.723C80.0565 126.404 81.9657 124.11 83.9043 121.843L85.8535 119.583C86.5767 118.751 86.4908 117.491 85.6621 116.766C86.5436 115.764 87.4303 114.767 88.3232 113.776C89.0887 114.47 90.2453 114.461 90.999 113.786L91.1445 113.643C93.825 110.702 96.5555 107.807 99.3359 104.962C100.107 104.173 100.094 102.91 99.3076 102.138C100.246 101.189 101.189 100.246 102.138 99.3076C102.91 100.094 104.173 100.107 104.962 99.3359C107.096 97.2507 109.257 95.1933 111.445 93.1641L113.643 91.1436C114.457 90.4008 114.517 89.1396 113.777 88.3232C114.768 87.4305 115.764 86.5435 116.766 85.6621C117.491 86.4909 118.751 86.5761 119.583 85.8525C121.834 83.8945 124.11 81.9659 126.412 80.0664L128.723 78.1768C129.579 77.4826 129.711 76.227 129.021 75.3691C130.062 74.5348 131.108 73.7062 132.159 72.8838C132.793 73.6986 133.933 73.8892 134.792 73.3545L134.96 73.2383C137.319 71.4142 139.703 69.6196 142.111 67.8564L144.527 66.1045C145.423 65.4608 145.627 64.2139 144.986 63.3174C146.075 62.5444 147.168 61.7772 148.266 61.0166C148.851 61.8679 149.979 62.1251 150.868 61.6406L151.042 61.5342C153.502 59.8505 155.986 58.1976 158.492 56.5771L161.006 54.9678C161.937 54.3773 162.213 53.1459 161.626 52.2139C162.758 51.5052 163.894 50.8032 165.034 50.1074C165.57 50.9901 166.681 51.3116 167.596 50.8799L167.775 50.7832C170.329 49.2457 172.905 47.7407 175.501 46.2686L178.104 44.8076C179.068 44.2724 179.416 43.0584 178.885 42.0938C180.054 41.453 181.228 40.8189 182.405 40.1914C182.921 41.1647 184.127 41.5379 185.103 41.0254C187.742 39.6387 190.402 38.2859 193.082 36.9668L195.769 35.6592C196.762 35.1808 197.181 33.9884 196.705 32.9941C197.908 32.4236 199.115 31.8606 200.326 31.3037C200.784 32.3058 201.966 32.7496 202.97 32.2949C206.589 30.6555 210.242 29.0771 213.928 27.5615C214.947 27.1423 215.434 25.9781 215.019 24.958C216.255 24.458 217.495 23.9655 218.738 23.4795C219.112 24.4419 220.149 24.9522 221.125 24.6865L221.319 24.623C224.099 23.5552 226.897 22.5222 229.711 21.5254L232.531 20.541C233.574 20.182 234.128 19.0469 233.772 18.0039C235.038 17.5765 236.307 17.1562 237.579 16.7432C237.916 17.7923 239.038 18.3715 240.089 18.0371C242.925 17.1347 245.776 16.2684 248.644 15.4385L251.516 14.6211C252.577 14.3239 253.198 13.2239 252.904 12.1621C254.194 11.8093 255.487 11.4641 256.782 11.126C257.058 12.1923 258.144 12.8355 259.212 12.5635C262.094 11.8292 264.991 11.1312 267.902 10.4707L270.818 9.82324C271.896 9.58865 272.58 8.5259 272.348 7.44824C273.652 7.17226 274.96 6.9047 276.27 6.64355C276.468 7.657 277.402 8.34056 278.409 8.25L278.612 8.22168C281.535 7.65674 284.471 7.12865 287.42 6.63867L290.374 6.16113C291.463 5.98979 292.207 4.97049 292.039 3.88184C293.353 3.68312 294.67 3.49141 295.989 3.30762C296.129 4.33103 297.02 5.06798 298.031 5.03613L298.235 5.01953C302.171 4.49458 306.127 4.03638 310.104 3.64648C311.201 3.53891 312.002 2.56443 311.898 1.46777C313.22 1.34587 314.545 1.2319 315.871 1.125C315.957 2.22302 316.915 3.04507 318.015 2.96289C320.981 2.74105 323.958 2.55776 326.945 2.41211L329.937 2.2793C331.038 2.23507 331.894 1.30834 331.854 0.208008C333.184 0.162298 334.516 0.123326 335.851 0.0927734C335.873 1.19404 336.783 2.07069 337.885 2.05176C339.877 2.01753 341.874 2 343.875 2C345.876 2 347.873 2.01753 349.865 2.05176C350.967 2.07069 351.876 1.19403 351.898 0.0927734Z" fill="#D9D9D9" stroke="#D9D9D9" stroke-width="4" stroke-linecap="round" stroke-linejoin="round" stroke-dasharray="12 8"/>
<path d="M227.95 518V154.364H357.567C385.857 154.364 409.295 159.513 427.879 169.811C446.464 180.109 460.372 194.196 469.605 212.07C478.838 229.825 483.455 249.83 483.455 272.084C483.455 294.456 478.779 314.579 469.428 332.453C460.195 350.209 446.227 364.295 427.524 374.712C408.94 385.01 385.562 390.159 357.389 390.159H268.256V343.639H352.418C370.292 343.639 384.792 340.562 395.919 334.406C407.046 328.133 415.214 319.61 420.422 308.838C425.63 298.066 428.234 285.815 428.234 272.084C428.234 258.353 425.63 246.161 420.422 235.507C415.214 224.854 406.987 216.509 395.741 210.472C384.615 204.435 369.937 201.416 351.707 201.416H282.815V518H227.95Z" fill="black"/>
</svg>
